<?xml version="1.0" encoding="UTF-8"?>
<svg id="Layer_1" data-name="Layer 1" xmlns="http://www.w3.org/2000/svg" viewBox="0 0 360 360">
  <defs>
    <style>
      .cls-1 {
        fill: #155a2e;
      }
    </style>
  </defs>
  <path class="cls-1" d="M319.94,210.27l-37.87-68.66-54.67,33.23,21.29,36.48c.19.33.42.63.68.91l20.62,22.31h21.36c7.16,0,14.04-2.86,19.04-7.98,3.91-4,7.04-7.95,7.12-7.68.46,1.57-2.65,7.1-6.73,12.29-5.05,6.42-12.78,10.14-20.95,10.14h-21.85s-38.13-37.84-38.13-37.84h-9.64l-42.01-49.35-84.79,99.59c-4.54,5.33-7.44,11.84-8.41,18.77-1.24,8.82.09,18.45-.1,18.33-2.77-1.87-6.68-29.91-2.73-37.17,3.81-7,7.85-13,10.65-16.91,4.62-6.46,11.05-16.07,18.19-29.09,2.73,1.15,5.47,2.3,8.2,3.45l5.04-5.47-24.46-46.18-57.26,5.9,16.26,10.65-18.35,33.13c-4.23,7.64-4.1,16.95.34,24.47l32.16,54.45c5.17,8.75,14.58,14.12,24.74,14.12h163.74c10.13,0,19.51-5.34,24.69-14.04l33.48-56.26c3.94-6.63,4.08-14.84.35-21.6ZM157.34,245.89l2.18-23.99-49.63,25.28c-.06.03-.12-.05-.07-.1l67.2-68.79c.4-.41,1.1-.25,1.28.31l7.41,23.7c.2.63.1,1.31-.26,1.87l-27.43,41.97c-.21.32-.7.15-.67-.23ZM228.01,240.84l-35.29-12.47-16.77,10.97c-.47.31-1.06-.19-.83-.71l6.49-14.42,11.76-11.87c.48-.48,1.25-.52,1.77-.08l33.13,28.12c.23.19.02.56-.26.46Z"/>
  <path class="cls-1" d="M173.12,107.68l-35.33,57.38c-.06.09-.18.13-.28.07l-53.42-31.02c-.1-.06-.13-.18-.07-.28l34.33-58.51c6.36-10.84,17.99-17.5,30.55-17.5h71.66c7.03,0,13.56,3.65,17.24,9.64l21.05,34.24c.06.1.18.13.28.07l20.05-12.08c.18-.11.38.09.28.27l-32.5,60.26c-.04.07-.11.11-.19.11l-64.27-2.18c-.2,0-.27-.27-.11-.37l16.27-10.68c.09-.06.12-.18.06-.28l-38.69-64.56s-.02-.03-.03-.04c-1.63-1.68-6.03-5.77-13.12-7.31-6.98-1.52-12.68.28-15.3,1.34-.2.08-.14.37.07.39,3.12.18,8.09.9,13.47,3.66,6.73,3.45,10.6,8.32,12.35,10.85h0c5.2,8.79,10.41,17.56,15.61,26.33.04.07.04.15,0,.21Z"/>
</svg>