<?xml version="1.0" encoding="UTF-8"?>
<svg id="Layer_1" data-name="Layer 1" xmlns="http://www.w3.org/2000/svg" viewBox="0 0 360 360">
  <defs>
    <style>
      .cls-1 {
        fill: #0a5738;
      }
    </style>
  </defs>
  <path class="cls-1" d="M113.61,171.73l22.9,14.38,44.47-69.45,26.3,43.9-10.79,8.89,37.85,9.08,9.84-34.82-10.79,6.62-40.77-66.57c-5.82-9.5-19.62-9.48-25.41.03l-53.6,87.93Z"/>
  <path class="cls-1" d="M303.21,264.71l-54.38-87.61-22.89,16.24,32.87,54.78-35.02-35.8-3.33,2.74-40.57-52.24-48.84,59.28-10.96-35.98-34.04,8.01,10.37,7.04-39.81,65.06c-4.58,7.49.81,17.11,9.59,17.11h226.65c9.56,0,15.4-10.5,10.36-18.62ZM96.62,255.55l23.67-38.35,9.39,5.87-33.06,32.48ZM172.53,212.31l-40.11,27.78,45.19-48.91,28.56,45.19-33.65-24.06Z"/>
</svg>