<?xml version="1.0" encoding="UTF-8"?>
<svg id="Layer_1" data-name="Layer 1" xmlns="http://www.w3.org/2000/svg" viewBox="0 0 360 360">
  <defs>
    <style>
      .cls-1 {
        fill: #0a5738;
      }
    </style>
  </defs>
  <g>
    <path class="cls-1" d="M46.34,172.36l10.67,6.7,20.73-32.37,12.26,20.46-5.03,4.15,17.64,4.23,4.59-16.23-5.03,3.09-19-31.03c-2.71-4.43-9.14-4.42-11.85.01l-24.99,40.99Z"/>
    <path class="cls-1" d="M134.72,215.7l-25.35-40.84-10.67,7.57,15.32,25.54-16.32-16.69-1.55,1.28-18.91-24.35-22.77,27.63-5.11-16.77-15.87,3.73,4.83,3.28-18.56,30.33c-2.14,3.49.38,7.98,4.47,7.98h105.65c4.46,0,7.18-4.89,4.83-8.68ZM38.42,211.43l11.04-17.88,4.38,2.74-15.41,15.14ZM73.8,191.28l-18.7,12.95,21.07-22.8,13.32,21.07-15.69-11.22Z"/>
  </g>
  <g>
    <g>
      <path class="cls-1" d="M123.88,153.45v21.42h-4.64v-21.42h4.64Z"/>
      <path class="cls-1" d="M127.95,174.87v-21.42h5.1l4.1,8.02c1.09,2.07,2.28,4.77,3.14,7.02h.08c-.25-2.66-.4-5.8-.4-9.25v-5.79h4.21v21.42h-4.7l-4.19-8.22c-1.11-2.16-2.39-4.89-3.26-7.23h-.09c.14,2.64.23,5.75.23,9.5v5.95h-4.21Z"/>
      <path class="cls-1" d="M151.82,157.45h-5.18v-4h15.07v4h-5.24v17.42h-4.64v-17.42Z"/>
      <path class="cls-1" d="M175.78,165.7h-6.98v5.31h7.82v3.86h-12.46v-21.42h12.03v3.86h-7.39v4.6h6.98v3.79Z"/>
      <path class="cls-1" d="M179.8,153.75c1.48-.26,3.59-.45,5.87-.45,2.91,0,5.08.44,6.57,1.67,1.29,1.07,1.9,2.55,1.9,4.48,0,2.59-1.69,4.52-3.64,5.29v.09c1.48.6,2.28,1.99,2.78,4.07.59,2.41,1.21,5.16,1.62,5.97h-4.78c-.31-.61-.83-2.47-1.35-5.03-.53-2.67-1.36-3.4-3.17-3.42h-1.2v8.45h-4.6v-21.12ZM184.4,163h1.56c2.23,0,3.54-1.3,3.54-3.16s-1.16-3.01-3.27-3.04c-.92,0-1.52.06-1.83.15v6.04Z"/>
      <path class="cls-1" d="M214.08,166.89c-.1-2.43-.21-5.42-.19-8.31h-.09c-.59,2.61-1.4,5.53-2.08,7.8l-2.4,8.14h-3.52l-2.15-8.05c-.61-2.29-1.28-5.21-1.75-7.89h-.07c-.09,2.74-.22,5.87-.34,8.37l-.39,7.92h-4.21l1.42-21.42h5.84l1.98,7.34c.65,2.53,1.28,5.13,1.73,7.61h.09c.51-2.45,1.16-5.15,1.84-7.64l2.1-7.31h5.76l1.2,21.42h-4.42l-.35-7.98Z"/>
      <path class="cls-1" d="M239.87,163.9c0,7.34-3.83,11.3-9.43,11.3-5.9,0-9.09-4.9-9.09-10.95s3.58-11.12,9.42-11.12c6.15,0,9.11,5.15,9.11,10.77ZM226.23,164.2c0,4.4,1.65,7.21,4.42,7.21s4.33-3.12,4.33-7.34c0-3.84-1.45-7.16-4.35-7.16s-4.41,2.99-4.41,7.29Z"/>
      <path class="cls-1" d="M247.48,153.45v12.8c0,3.53,1.27,5.15,3.33,5.15s3.38-1.51,3.38-5.15v-12.8h4.64v12.37c0,6.28-2.97,9.37-8.13,9.37s-7.86-3.03-7.86-9.4v-12.34h4.64Z"/>
      <path class="cls-1" d="M262.83,174.87v-21.42h5.1l4.1,8.02c1.09,2.07,2.28,4.77,3.14,7.02h.08c-.25-2.66-.4-5.8-.4-9.25v-5.79h4.21v21.42h-4.7l-4.19-8.22c-1.11-2.16-2.39-4.89-3.26-7.23h-.09c.14,2.64.23,5.75.23,9.5v5.95h-4.21Z"/>
      <path class="cls-1" d="M286.7,157.45h-5.18v-4h15.07v4h-5.24v17.42h-4.64v-17.42Z"/>
      <path class="cls-1" d="M301.59,169.55l-1.34,5.32h-4.72l5.97-21.42h5.93l5.92,21.42h-4.87l-1.43-5.32h-5.47ZM306.45,166.06l-1.15-4.53c-.32-1.28-.67-3.05-.96-4.35h-.07c-.29,1.31-.61,3.11-.92,4.35l-1.13,4.53h4.23Z"/>
      <path class="cls-1" d="M320.72,153.45v21.42h-4.64v-21.42h4.64Z"/>
      <path class="cls-1" d="M324.79,174.87v-21.42h5.1l4.1,8.02c1.09,2.07,2.28,4.77,3.14,7.02h.08c-.25-2.66-.4-5.8-.4-9.25v-5.79h4.21v21.42h-4.7l-4.19-8.22c-1.11-2.16-2.39-4.89-3.26-7.23h-.09c.14,2.64.23,5.75.23,9.5v5.95h-4.21Z"/>
    </g>
    <g>
      <path class="cls-1" d="M140.12,185.43c1.56-.28,3.64-.45,5.84-.45,3.65,0,6.08.72,7.93,2.18,2.11,1.66,3.37,4.34,3.37,8.23,0,4.18-1.37,7.08-3.37,8.8-2.01,1.73-5.06,2.56-8.88,2.56-2.16,0-3.81-.15-4.88-.29v-21.03ZM144.75,203.01c.36.07.93.08,1.41.08,3.67.03,6.22-2.26,6.22-7.62,0-4.44-2.16-6.88-5.83-6.88-.83,0-1.41.07-1.79.16v14.25Z"/>
      <path class="cls-1" d="M164.89,185.13v12.8c0,3.53,1.27,5.15,3.33,5.15s3.38-1.51,3.38-5.15v-12.8h4.64v12.37c0,6.28-2.97,9.37-8.13,9.37s-7.86-3.03-7.86-9.4v-12.34h4.64Z"/>
      <path class="cls-1" d="M196.81,198.57c-.1-2.43-.21-5.42-.19-8.31h-.09c-.59,2.61-1.4,5.53-2.08,7.8l-2.4,8.14h-3.52l-2.15-8.05c-.61-2.29-1.28-5.21-1.75-7.89h-.07c-.09,2.74-.22,5.87-.34,8.37l-.39,7.92h-4.21l1.42-21.42h5.84l1.98,7.34c.65,2.53,1.28,5.13,1.73,7.61h.09c.51-2.45,1.16-5.15,1.84-7.64l2.1-7.31h5.76l1.2,21.42h-4.42l-.35-7.98Z"/>
      <path class="cls-1" d="M205.1,185.42c1.4-.25,3.34-.44,5.88-.44,2.82,0,4.91.51,6.33,1.71,1.34,1.08,2.14,2.86,2.14,4.88,0,2.17-.69,3.91-1.91,5.1-1.56,1.51-3.93,2.21-6.43,2.21-.53,0-1.02-.03-1.41-.08v7.76h-4.61v-21.13ZM209.7,195.15c.35.08.76.1,1.33.1,2.43,0,3.82-1.36,3.82-3.48,0-1.94-1.17-3.2-3.46-3.2-.79,0-1.37.07-1.69.16v6.42Z"/>
      <path class="cls-1" d="M222.36,201.77c1.16.63,3.01,1.19,4.82,1.19,2.15,0,3.27-.95,3.27-2.36s-1.01-2.16-3.34-3.14c-3.38-1.43-5.35-3.46-5.35-6.24,0-3.59,2.83-6.39,7.7-6.39,2.14,0,3.77.46,4.84.99l-.95,3.79c-.78-.4-2.13-.93-3.95-.93-2.01,0-2.97,1.01-2.97,2.11,0,1.34,1.02,1.96,3.66,3.11,3.51,1.5,5.05,3.53,5.05,6.33,0,3.68-2.78,6.6-8.17,6.6-2.22,0-4.42-.59-5.47-1.19l.87-3.88Z"/>
      <path class="cls-1" d="M241.74,189.13h-5.18v-4h15.07v4h-5.24v17.42h-4.64v-17.42Z"/>
      <path class="cls-1" d="M265.71,197.38h-6.98v5.31h7.82v3.86h-12.46v-21.42h12.03v3.86h-7.39v4.6h6.98v3.79Z"/>
      <path class="cls-1" d="M269.72,185.43c1.48-.26,3.59-.45,5.87-.45,2.91,0,5.08.44,6.57,1.67,1.29,1.07,1.9,2.55,1.9,4.48,0,2.59-1.69,4.52-3.64,5.29v.09c1.48.6,2.28,1.99,2.78,4.07.59,2.41,1.21,5.16,1.62,5.97h-4.78c-.31-.61-.83-2.47-1.35-5.03-.53-2.67-1.36-3.4-3.17-3.42h-1.2v8.45h-4.6v-21.12ZM274.33,194.68h1.56c2.23,0,3.54-1.3,3.54-3.16s-1.16-3.01-3.27-3.04c-.92,0-1.52.06-1.83.15v6.04Z"/>
      <path class="cls-1" d="M287.36,201.77c1.16.63,3.01,1.19,4.81,1.19,2.15,0,3.27-.95,3.27-2.36s-1.01-2.16-3.35-3.14c-3.38-1.43-5.35-3.46-5.35-6.24,0-3.59,2.83-6.39,7.7-6.39,2.14,0,3.77.46,4.84.99l-.95,3.79c-.78-.4-2.13-.93-3.95-.93-2.01,0-2.97,1.01-2.97,2.11,0,1.34,1.02,1.96,3.66,3.11,3.51,1.5,5.05,3.53,5.05,6.33,0,3.68-2.78,6.6-8.17,6.6-2.22,0-4.42-.59-5.47-1.19l.87-3.88Z"/>
    </g>
  </g>
</svg>