<?xml version="1.0" encoding="UTF-8"?>
<svg id="Layer_1" data-name="Layer 1" xmlns="http://www.w3.org/2000/svg" viewBox="0 0 360 360">
  <defs>
    <style>
      .cls-1 {
        fill: #0a5738;
      }
    </style>
  </defs>
  <g>
    <g>
      <path class="cls-1" d="M46.32,254.14v26.96h-5.84v-26.96h5.84Z"/>
      <path class="cls-1" d="M51.43,281.1v-26.96h6.41l5.16,10.09c1.37,2.6,2.87,6,3.95,8.83h.1c-.32-3.35-.5-7.3-.5-11.63v-7.29h5.3v26.96h-5.91l-5.27-10.34c-1.4-2.72-3-6.16-4.11-9.09h-.12c.18,3.32.29,7.24.29,11.95v7.49h-5.3Z"/>
      <path class="cls-1" d="M81.47,259.18h-6.52v-5.04h18.96v5.04h-6.6v21.92h-5.84v-21.92Z"/>
      <path class="cls-1" d="M111.62,269.56h-8.79v6.68h9.84v4.86h-15.68v-26.96h15.14v4.86h-9.3v5.79h8.79v4.77Z"/>
      <path class="cls-1" d="M116.67,254.52c1.87-.33,4.52-.56,7.39-.56,3.66,0,6.39.55,8.26,2.1,1.62,1.34,2.39,3.21,2.39,5.64,0,3.26-2.13,5.69-4.58,6.66v.11c1.86.75,2.87,2.51,3.5,5.12.74,3.03,1.53,6.49,2.04,7.52h-6.01c-.39-.77-1.04-3.1-1.7-6.33-.66-3.36-1.71-4.28-3.99-4.3h-1.51v10.63h-5.79v-26.58ZM122.47,266.17h1.96c2.8,0,4.46-1.63,4.46-3.98s-1.46-3.79-4.11-3.82c-1.16,0-1.91.08-2.3.19v7.61Z"/>
      <path class="cls-1" d="M159.8,271.05c-.13-3.06-.27-6.82-.24-10.46h-.11c-.75,3.28-1.76,6.96-2.62,9.82l-3.01,10.24h-4.43l-2.7-10.13c-.77-2.88-1.61-6.56-2.2-9.93h-.09c-.12,3.45-.28,7.38-.43,10.53l-.49,9.97h-5.29l1.79-26.96h7.35l2.49,9.23c.82,3.19,1.61,6.45,2.17,9.58h.12c.64-3.08,1.46-6.48,2.31-9.61l2.64-9.2h7.24l1.5,26.96h-5.56l-.44-10.04Z"/>
      <path class="cls-1" d="M192.26,267.29c0,9.24-4.82,14.21-11.87,14.21-7.42,0-11.44-6.17-11.44-13.77s4.51-13.99,11.85-13.99c7.74,0,11.46,6.48,11.46,13.55ZM175.1,267.67c0,5.53,2.08,9.07,5.57,9.07s5.45-3.93,5.45-9.23c0-4.83-1.83-9.01-5.47-9.01s-5.54,3.77-5.54,9.17Z"/>
      <path class="cls-1" d="M201.84,254.14v16.11c0,4.45,1.6,6.47,4.19,6.47s4.25-1.91,4.25-6.47v-16.11h5.84v15.57c0,7.9-3.73,11.79-10.23,11.79s-9.89-3.81-9.89-11.83v-15.53h5.84Z"/>
      <path class="cls-1" d="M221.15,281.1v-26.96h6.41l5.16,10.09c1.37,2.6,2.87,6,3.95,8.83h.1c-.32-3.35-.5-7.3-.5-11.63v-7.29h5.3v26.96h-5.91l-5.27-10.34c-1.4-2.72-3-6.16-4.11-9.09h-.12c.18,3.32.29,7.24.29,11.95v7.49h-5.3Z"/>
      <path class="cls-1" d="M251.19,259.18h-6.52v-5.04h18.96v5.04h-6.6v21.92h-5.84v-21.92Z"/>
      <path class="cls-1" d="M269.93,274.41l-1.69,6.69h-5.94l7.51-26.96h7.47l7.45,26.96h-6.13l-1.79-6.69h-6.88ZM276.04,270.01l-1.45-5.7c-.4-1.61-.84-3.83-1.21-5.47h-.09c-.37,1.65-.77,3.92-1.16,5.48l-1.42,5.7h5.33Z"/>
      <path class="cls-1" d="M293.99,254.14v26.96h-5.84v-26.96h5.84Z"/>
      <path class="cls-1" d="M299.11,281.1v-26.96h6.41l5.16,10.09c1.37,2.6,2.87,6,3.95,8.83h.1c-.32-3.35-.5-7.3-.5-11.63v-7.29h5.3v26.96h-5.91l-5.27-10.34c-1.4-2.72-3-6.16-4.11-9.09h-.12c.18,3.32.29,7.24.29,11.95v7.49h-5.3Z"/>
    </g>
    <g>
      <path class="cls-1" d="M79.97,294.39c1.96-.35,4.59-.56,7.35-.56,4.6,0,7.65.9,9.97,2.75,2.65,2.09,4.24,5.46,4.24,10.36,0,5.26-1.73,8.91-4.24,11.07-2.54,2.18-6.37,3.23-11.18,3.23-2.71,0-4.79-.18-6.14-.37v-26.47ZM85.8,316.5c.46.09,1.17.1,1.77.1,4.62.03,7.82-2.84,7.82-9.58,0-5.58-2.72-8.65-7.34-8.65-1.04,0-1.78.08-2.25.2v17.94Z"/>
      <path class="cls-1" d="M111.14,294.01v16.11c0,4.45,1.6,6.47,4.19,6.47s4.25-1.91,4.25-6.47v-16.11h5.84v15.57c0,7.9-3.73,11.79-10.23,11.79s-9.89-3.81-9.89-11.83v-15.53h5.84Z"/>
      <path class="cls-1" d="M151.3,310.92c-.13-3.06-.27-6.82-.24-10.46h-.11c-.75,3.28-1.76,6.96-2.62,9.82l-3.01,10.24h-4.43l-2.7-10.13c-.77-2.88-1.61-6.56-2.2-9.93h-.09c-.12,3.45-.28,7.38-.43,10.53l-.49,9.97h-5.29l1.79-26.96h7.35l2.49,9.23c.82,3.19,1.61,6.45,2.17,9.58h.12c.64-3.08,1.46-6.48,2.31-9.61l2.64-9.2h7.24l1.5,26.96h-5.56l-.44-10.04Z"/>
      <path class="cls-1" d="M161.73,294.38c1.76-.32,4.2-.55,7.4-.55,3.55,0,6.18.65,7.97,2.15,1.69,1.36,2.69,3.6,2.69,6.13,0,2.73-.86,4.92-2.41,6.41-1.96,1.9-4.95,2.78-8.09,2.78-.67,0-1.28-.04-1.77-.1v9.77h-5.79v-26.58ZM167.53,306.61c.44.1.96.13,1.68.13,3.06,0,4.81-1.71,4.81-4.38,0-2.44-1.47-4.03-4.36-4.03-.99,0-1.72.09-2.13.2v8.08Z"/>
      <path class="cls-1" d="M183.45,314.95c1.46.79,3.79,1.5,6.06,1.5,2.7,0,4.11-1.2,4.11-2.97s-1.27-2.72-4.21-3.95c-4.25-1.79-6.73-4.36-6.73-7.85,0-4.52,3.56-8.04,9.69-8.04,2.69,0,4.74.58,6.09,1.24l-1.2,4.77c-.98-.5-2.68-1.17-4.97-1.17-2.53,0-3.74,1.27-3.74,2.66,0,1.68,1.29,2.47,4.61,3.92,4.41,1.89,6.35,4.45,6.35,7.96,0,4.64-3.5,8.31-10.28,8.31-2.79,0-5.56-.75-6.88-1.5l1.09-4.88Z"/>
      <path class="cls-1" d="M207.85,299.04h-6.52v-5.04h18.96v5.04h-6.6v21.92h-5.84v-21.92Z"/>
      <path class="cls-1" d="M238,309.42h-8.79v6.68h9.84v4.86h-15.68v-26.96h15.14v4.86h-9.3v5.79h8.79v4.77Z"/>
      <path class="cls-1" d="M243.05,294.39c1.87-.33,4.52-.56,7.39-.56,3.66,0,6.39.55,8.26,2.1,1.62,1.34,2.39,3.21,2.39,5.64,0,3.26-2.13,5.69-4.58,6.66v.11c1.86.75,2.87,2.51,3.5,5.12.74,3.03,1.53,6.49,2.04,7.52h-6.01c-.39-.77-1.04-3.1-1.7-6.33-.66-3.36-1.71-4.28-3.99-4.3h-1.51v10.63h-5.79v-26.58ZM248.85,306.03h1.96c2.8,0,4.46-1.63,4.46-3.98s-1.46-3.79-4.11-3.82c-1.16,0-1.91.08-2.3.19v7.61Z"/>
      <path class="cls-1" d="M265.25,314.95c1.46.79,3.79,1.5,6.06,1.5,2.7,0,4.11-1.2,4.11-2.97s-1.27-2.72-4.21-3.95c-4.25-1.79-6.73-4.36-6.73-7.85,0-4.52,3.56-8.04,9.69-8.04,2.69,0,4.74.58,6.09,1.24l-1.19,4.77c-.98-.5-2.68-1.17-4.97-1.17-2.53,0-3.74,1.27-3.74,2.66,0,1.68,1.29,2.47,4.61,3.92,4.41,1.89,6.35,4.45,6.35,7.96,0,4.64-3.5,8.31-10.28,8.31-2.79,0-5.56-.75-6.88-1.5l1.09-4.88Z"/>
    </g>
  </g>
  <g>
    <path class="cls-1" d="M113.61,122.42l22.9,14.38,44.47-69.45,26.3,43.9-10.79,8.89,37.85,9.08,9.84-34.82-10.79,6.62-40.77-66.57c-5.82-9.5-19.62-9.48-25.41.03l-53.6,87.93Z"/>
    <path class="cls-1" d="M303.21,215.4l-54.38-87.61-22.89,16.24,32.87,54.78-35.02-35.8-3.33,2.74-40.57-52.24-48.84,59.28-10.96-35.98-34.04,8.01,10.37,7.04-39.81,65.06c-4.58,7.49.81,17.11,9.59,17.11h226.65c9.56,0,15.4-10.5,10.36-18.62ZM96.62,206.24l23.67-38.35,9.39,5.87-33.06,32.48ZM172.53,163.01l-40.11,27.78,45.19-48.91,28.56,45.19-33.65-24.06Z"/>
  </g>
</svg>