<?xml version="1.0" encoding="UTF-8"?>
<svg id="Layer_1" data-name="Layer 1" xmlns="http://www.w3.org/2000/svg" viewBox="0 0 360 360">
  <defs>
    <style>
      .cls-1 {
        fill: #fff;
      }
    </style>
  </defs>
  <g>
    <path class="cls-1" d="M116.37,191.85l-14.82-26.88-21.4,13.01,8.34,14.28c.07.13.16.25.26.36l8.07,8.73h8.36c2.8,0,5.5-1.12,7.45-3.12,1.53-1.57,2.76-3.11,2.79-3.01.18.61-1.04,2.78-2.64,4.81-1.98,2.51-5,3.97-8.2,3.97h-8.55s-14.92-14.81-14.92-14.81h-3.77l-16.45-19.32-33.19,38.99c-1.78,2.09-2.91,4.64-3.29,7.35-.49,3.45.03,7.22-.04,7.17-1.08-.73-2.62-11.71-1.07-14.55,1.49-2.74,3.07-5.09,4.17-6.62,1.81-2.53,4.33-6.29,7.12-11.39,1.07.45,2.14.9,3.21,1.35l1.97-2.14-9.57-18.08-22.42,2.31,6.36,4.17-7.18,12.97c-1.66,2.99-1.61,6.64.13,9.58l12.59,21.32c2.02,3.43,5.71,5.53,9.69,5.53h64.1c3.97,0,7.64-2.09,9.67-5.5l13.11-22.02c1.54-2.59,1.6-5.81.14-8.45ZM52.72,205.79l.85-9.39-19.43,9.89s-.05-.02-.03-.04l26.31-26.93c.16-.16.43-.1.5.12l2.9,9.28c.08.25.04.51-.1.73l-10.74,16.43c-.08.12-.28.06-.26-.09ZM80.39,203.82l-13.82-4.88-6.56,4.29c-.19.12-.42-.07-.32-.28l2.54-5.65,4.6-4.65c.19-.19.49-.2.69-.03l12.97,11.01c.09.08,0,.22-.1.18Z"/>
    <path class="cls-1" d="M58.9,151.69l-13.83,22.46s-.07.05-.11.03l-20.91-12.14s-.05-.07-.03-.11l13.44-22.91c2.49-4.24,7.04-6.85,11.96-6.85h28.05c2.75,0,5.31,1.43,6.75,3.77l8.24,13.4s.07.05.11.03l7.85-4.73c.07-.04.15.03.11.11l-12.72,23.59s-.04.04-.07.04l-25.16-.85c-.08,0-.11-.1-.04-.15l6.37-4.18s.05-.07.02-.11l-15.14-25.27s0,0-.01-.01c-.64-.66-2.36-2.26-5.13-2.86-2.73-.59-4.97.11-5.99.53-.08.03-.06.15.03.15,1.22.07,3.17.35,5.27,1.43,2.64,1.35,4.15,3.26,4.84,4.25h0c2.04,3.44,4.07,6.87,6.11,10.31.02.03.01.06,0,.08Z"/>
  </g>
  <g>
    <g>
      <path class="cls-1" d="M123.11,175.9h-4.47v-21.02h4.47v21.02Z"/>
      <path class="cls-1" d="M139.6,175.9l-8.1-14.84v14.84h-4.09v-21.02h5.34l7.95,14.89v-14.89h4.06v21.02h-5.17Z"/>
      <path class="cls-1" d="M153.3,175.9v-17.24h-6.18v-3.77h16.81v3.77h-6.13v17.24h-4.5Z"/>
      <path class="cls-1" d="M170.78,172.13h9.38v3.77h-13.85v-21.02h13.33v3.75h-8.85v4.94h8.33v3.66h-8.33v4.91Z"/>
      <path class="cls-1" d="M199.52,175.9h-4.82l-4.15-7.98h-2.87v7.98h-4.44v-21.02h8.19c5.23,0,6.97,2.82,6.97,5.92s-1.48,5.02-3.63,6.01l4.76,9.09ZM189.97,164.41c2.09,0,3.8-.78,3.8-3.16,0-2-1.25-2.76-3.63-2.76h-2.47v5.92h2.29Z"/>
      <path class="cls-1" d="M224.17,175.9h-4.18v-16.49h-.12l-4.96,16.49h-4.03l-4.79-16.52h-.12v16.52h-4.09v-21.02h6.68l4.44,15.36h.12l4.41-15.36h6.65v21.02Z"/>
      <path class="cls-1" d="M227.4,165.48c0-6.24,3.45-10.97,10.25-10.97s9.64,4.73,9.64,10.57c0,6.82-3.28,11.18-10.1,11.18s-9.78-4.5-9.78-10.77ZM242.67,165.34c0-4.85-1.89-7.06-5.11-7.06-3.4,0-5.54,2.24-5.54,7.11s2.03,7.08,5.34,7.08c3.14,0,5.31-1.95,5.31-7.14Z"/>
      <path class="cls-1" d="M262.53,167.69v-12.8h4.47v13.44c0,5.57-3.22,7.93-8.48,7.93-5.81,0-8.27-2.55-8.27-8.04v-13.33h4.5v12.72c0,3.28.84,4.91,3.95,4.91s3.83-1.39,3.83-4.82Z"/>
      <path class="cls-1" d="M283.26,175.9l-8.1-14.84v14.84h-4.09v-21.02h5.34l7.95,14.89v-14.89h4.06v21.02h-5.17Z"/>
      <path class="cls-1" d="M296.97,175.9v-17.24h-6.18v-3.77h16.81v3.77h-6.13v17.24h-4.5Z"/>
      <path class="cls-1" d="M318.25,154.88l7.43,21.02h-4.91l-1.74-5.11h-7l-1.63,5.11h-4.62l6.88-21.02h5.57ZM315.49,159.09h-.12l-2.58,8.13h5.31l-2.61-8.13Z"/>
      <path class="cls-1" d="M332.59,175.9h-4.47v-21.02h4.47v21.02Z"/>
      <path class="cls-1" d="M349.08,175.9l-8.1-14.84v14.84h-4.09v-21.02h5.34l7.95,14.89v-14.89h4.06v21.02h-5.17Z"/>
    </g>
    <g>
      <path class="cls-1" d="M126.97,205.14v-21.02h7.37c7.29,0,10.42,3.92,10.42,10.19s-3.4,10.83-10.92,10.83h-6.88ZM133.65,201.54c4.85,0,6.53-2.64,6.53-7,0-5.23-2.03-6.82-6.21-6.82h-2.53v13.82h2.21Z"/>
      <path class="cls-1" d="M160.01,196.93v-12.8h4.47v13.44c0,5.57-3.22,7.93-8.48,7.93-5.81,0-8.27-2.55-8.27-8.04v-13.33h4.5v12.72c0,3.28.84,4.91,3.95,4.91s3.83-1.39,3.83-4.82Z"/>
      <path class="cls-1" d="M190.84,205.14h-4.18v-16.49h-.12l-4.96,16.49h-4.03l-4.79-16.52h-.12v16.52h-4.09v-21.02h6.68l4.44,15.36h.12l4.41-15.36h6.65v21.02Z"/>
      <path class="cls-1" d="M199.56,205.14h-4.44v-21.02h7.95c5.37,0,7,3.22,7,6.56,0,5.05-2.76,7.66-8.22,7.66h-2.29v6.79ZM201.36,194.75c2.29,0,4.12-.67,4.12-3.75,0-2.7-1.6-3.28-3.77-3.28h-2.15v7.03h1.8Z"/>
      <path class="cls-1" d="M216.25,189.44c0,1.89,2,2.47,4.3,3.11,3.05.84,6.62,1.92,6.62,6.3,0,4.76-3.86,6.65-8.04,6.65-3.77,0-7.75-1.22-8.13-6.68l4.06-.61c.35,2.03,1.1,3.74,4.18,3.74,1.86,0,3.48-.64,3.48-2.58,0-1.83-1.97-2.38-4.24-2.96-3.08-.81-6.71-1.74-6.71-6.33,0-4.09,3.43-6.33,7.66-6.33,3.74,0,7.17,1.16,7.49,6.15l-4.09.46c-.17-1.97-.99-3.16-3.45-3.16-2.15,0-3.14.9-3.14,2.24Z"/>
      <path class="cls-1" d="M234.02,205.14v-17.24h-6.18v-3.77h16.81v3.77h-6.13v17.24h-4.5Z"/>
      <path class="cls-1" d="M251.5,201.37h9.38v3.77h-13.85v-21.02h13.33v3.75h-8.85v4.94h8.33v3.66h-8.33v4.91Z"/>
      <path class="cls-1" d="M280.24,205.14h-4.82l-4.15-7.98h-2.87v7.98h-4.44v-21.02h8.19c5.23,0,6.97,2.82,6.97,5.92s-1.48,5.02-3.63,6.01l4.76,9.09ZM270.69,193.65c2.09,0,3.8-.78,3.8-3.16,0-2-1.25-2.76-3.63-2.76h-2.47v5.92h2.29Z"/>
      <path class="cls-1" d="M286.02,189.44c0,1.89,2,2.47,4.3,3.11,3.05.84,6.62,1.92,6.62,6.3,0,4.76-3.86,6.65-8.04,6.65-3.77,0-7.75-1.22-8.13-6.68l4.06-.61c.35,2.03,1.1,3.74,4.18,3.74,1.86,0,3.48-.64,3.48-2.58,0-1.83-1.97-2.38-4.24-2.96-3.08-.81-6.71-1.74-6.71-6.33,0-4.09,3.43-6.33,7.66-6.33,3.74,0,7.17,1.16,7.49,6.15l-4.09.46c-.17-1.97-.99-3.16-3.45-3.16-2.15,0-3.14.9-3.14,2.24Z"/>
    </g>
  </g>
</svg>